<svg width="24" height="25" viewBox="0 0 24 25" fill="none" xmlns="http://www.w3.org/2000/svg">
<path d="M7.40024 10.5H8.99024V15.5C8.99024 16.05 9.44024 16.5 9.99024 16.5H13.9902C14.5402 16.5 14.9902 16.05 14.9902 15.5V10.5H16.5802C17.4702 10.5 17.9202 9.41997 17.2902 8.78997L12.7002 4.19997C12.3102 3.80997 11.6802 3.80997 11.2902 4.19997L6.70024 8.78997C6.07024 9.41997 6.51024 10.5 7.40024 10.5ZM5.00024 19.5C5.00024 20.05 5.45024 20.5 6.00024 20.5H18.0002C18.5502 20.5 19.0002 20.05 19.0002 19.5C19.0002 18.95 18.5502 18.5 18.0002 18.5H6.00024C5.45024 18.5 5.00024 18.95 5.00024 19.5Z" fill="#FDFDFD"/>
</svg>
