<svg aria-hidden="true" style="position: absolute; width: 0; height: 0; overflow: hidden;" version="1.1" xmlns="http://www.w3.org/2000/svg" xmlns:xlink="http://www.w3.org/1999/xlink">
    <defs>
        <symbol id="UK" viewBox="0 0 53 32">
            <path fill="#012169" style="fill: var(--color4, #012169)" d="M0 0h53.333v32h-53.333v-32z"></path>
            <path fill="#fff" style="fill: var(--color2, #fff)" d="M6.25 0l20.333 12.067 20.25-12.067h6.5v4.133l-20 11.933 20 11.867v4.067h-6.667l-20-11.933-19.917 11.933h-6.75v-4l19.917-11.867-19.917-11.867v-4.267h6.25z"></path>
            <path fill="#c8102e" style="fill: var(--color5, #c8102e)" d="M35.333 18.733l18 10.6v2.667l-22.583-13.267h4.583zM20 20.067l0.5 2.333-16 9.6h-4.5l20-11.933zM53.333 0v0.2l-20.75 12.533 0.166-2.933 16.417-9.8h4.167zM0 0l19.917 11.733h-5l-14.917-8.933v-2.8z"></path>
            <path fill="#fff" style="fill: var(--color2, #fff)" d="M20.083 0v32h13.333v-32h-13.333zM0 10.667v10.667h53.333v-10.667h-53.333z"></path>
            <path fill="#c8102e" style="fill: var(--color5, #c8102e)" d="M0 12.867v6.4h53.333v-6.4h-53.333zM22.75 0v32h8v-32h-8z"></path>
        </symbol>
        <symbol id="USA" viewBox="0 0 53 32">
            <path fill="#bd3d44" style="fill: var(--color1, #bd3d44)" d="M0 0h53.333v2.463h-53.333v-2.463zM0 4.925h53.333v2.463h-53.333v-2.463zM0 9.844h53.333v2.469h-53.333v-2.469zM0 14.769h53.333v2.462h-53.333v-2.463zM0 19.694h53.333v2.463h-53.333v-2.463zM0 24.612h53.333v2.462h-53.333v-2.462zM0 29.538h53.333v2.462h-53.333v-2.462z"></path>
            <path fill="#fff" style="fill: var(--color2, #fff)" d="M0 2.463h76v2.462h-76v-2.462zM0 7.387h76v2.456h-76v-2.456zM0 12.306h76v2.462h-76v-2.462zM0 17.231h76v2.462h-76v-2.462zM0 22.156h76v2.462h-76v-2.462zM0 27.075h76v2.463h-76v-2.463z"></path>
            <path fill="#192f5d" style="fill: var(--color3, #192f5d)" d="M0 0h30.398v17.231h-30.398v-17.231z"></path>
            <path fill="#fff" style="fill: var(--color2, #fff)" d="M2.531 0.738l0.281 0.681h0.891l-0.719 0.419 0.273 0.687-0.727-0.425-0.719 0.419 0.273-0.681-0.727-0.419h0.906l0.266-0.681zM7.602 0.738l0.273 0.681h0.898l-0.727 0.419 0.274 0.687-0.719-0.425-0.727 0.419 0.273-0.681-0.719-0.419h0.891l0.281-0.681zM12.664 0.738l0.281 0.681h0.883l-0.719 0.419 0.273 0.687-0.726-0.425-0.719 0.419 0.273-0.681-0.727-0.419h0.899l0.281-0.681zM17.734 0.738l0.273 0.681h0.898l-0.727 0.419 0.281 0.687-0.727-0.425-0.727 0.419 0.281-0.681-0.727-0.419h0.891l0.281-0.681zM22.797 0.738l0.281 0.681h0.891l-0.719 0.419 0.273 0.687-0.727-0.425-0.719 0.419 0.273-0.681-0.719-0.419h0.891l0.273-0.681zM27.867 0.738l0.273 0.681h0.899l-0.727 0.419 0.281 0.687-0.727-0.425-0.727 0.419 0.281-0.681-0.726-0.419h0.898l0.273-0.681zM5.070 2.462l0.273 0.681h0.898l-0.727 0.419 0.266 0.681-0.703-0.419-0.726 0.419 0.258-0.681-0.703-0.419h0.891l0.273-0.681zM10.133 2.462l0.281 0.681h0.891l-0.727 0.419 0.281 0.681-0.727-0.419-0.726 0.419 0.281-0.681-0.727-0.419h0.898l0.274-0.681zM15.203 2.462l0.273 0.681h0.898l-0.727 0.419 0.273 0.681-0.719-0.419-0.726 0.419 0.273-0.681-0.719-0.419h0.891l0.281-0.681zM20.266 2.462l0.281 0.681h0.891l-0.727 0.419 0.281 0.681-0.727-0.419-0.719 0.419 0.273-0.681-0.727-0.419h0.906l0.266-0.681zM25.336 2.462l0.273 0.681h0.898l-0.727 0.419 0.273 0.681-0.719-0.419-0.727 0.419 0.273-0.681-0.719-0.419h0.891l0.281-0.681zM2.531 4.181l0.281 0.694h0.891l-0.719 0.419 0.273 0.681-0.727-0.425-0.719 0.425 0.273-0.688-0.727-0.419h0.906l0.266-0.688zM7.602 4.181l0.273 0.687h0.898l-0.727 0.419 0.274 0.681-0.719-0.425-0.727 0.425 0.273-0.687-0.719-0.419h0.891l0.281-0.681zM12.664 4.181l0.281 0.687h0.883l-0.719 0.419 0.273 0.681-0.726-0.425-0.719 0.425 0.273-0.687-0.727-0.419h0.899l0.281-0.681zM17.734 4.181l0.273 0.687h0.898l-0.727 0.419 0.281 0.681-0.727-0.425-0.727 0.425 0.281-0.687-0.727-0.419h0.891l0.281-0.681zM22.797 4.181l0.281 0.687h0.891l-0.719 0.419 0.273 0.681-0.727-0.425-0.719 0.425 0.273-0.687-0.719-0.419h0.891l0.273-0.681zM27.867 4.181l0.273 0.687h0.899l-0.727 0.419 0.281 0.681-0.727-0.425-0.727 0.425 0.281-0.687-0.726-0.419h0.898l0.273-0.681zM5.070 5.906l0.273 0.681h0.898l-0.727 0.419 0.274 0.688-0.719-0.425-0.727 0.419 0.273-0.681-0.719-0.419h0.891l0.281-0.681zM10.133 5.906l0.281 0.681h0.891l-0.727 0.419 0.281 0.688-0.727-0.425-0.726 0.419 0.281-0.681-0.727-0.419h0.898l0.274-0.681zM15.203 5.906l0.273 0.681h0.898l-0.727 0.419 0.273 0.688-0.719-0.425-0.726 0.419 0.273-0.681-0.719-0.419h0.891l0.281-0.681zM20.266 5.906l0.281 0.681h0.891l-0.719 0.419 0.273 0.688-0.727-0.425-0.719 0.419 0.273-0.681-0.727-0.419h0.906l0.266-0.681zM25.336 5.906l0.273 0.681h0.898l-0.727 0.419 0.273 0.688-0.719-0.425-0.727 0.419 0.273-0.681-0.719-0.419h0.891l0.281-0.681zM2.531 7.631l0.281 0.681h0.891l-0.719 0.419 0.273 0.688-0.727-0.425-0.719 0.419 0.273-0.681-0.727-0.419h0.906l0.266-0.681zM7.602 7.631l0.273 0.681h0.898l-0.727 0.419 0.274 0.681-0.719-0.419-0.727 0.419 0.273-0.681-0.719-0.419h0.891l0.281-0.681zM12.664 7.631l0.281 0.681h0.883l-0.719 0.419 0.273 0.688-0.726-0.425-0.719 0.419 0.273-0.681-0.727-0.419h0.899l0.281-0.681zM17.734 7.631l0.273 0.681h0.898l-0.727 0.419 0.281 0.688-0.727-0.425-0.727 0.419 0.281-0.681-0.727-0.419h0.891l0.281-0.681zM22.797 7.631l0.281 0.681h0.891l-0.719 0.419 0.273 0.688-0.727-0.425-0.719 0.419 0.273-0.681-0.719-0.419h0.891l0.273-0.681zM27.867 7.631l0.273 0.681h0.899l-0.727 0.419 0.281 0.688-0.727-0.425-0.727 0.419 0.281-0.681-0.726-0.419h0.898l0.273-0.681zM5.070 9.356l0.273 0.681h0.898l-0.727 0.419 0.274 0.681-0.719-0.425-0.727 0.425 0.273-0.688-0.719-0.419h0.891l0.281-0.675zM10.133 9.356l0.281 0.681h0.891l-0.727 0.419 0.281 0.681-0.727-0.425-0.726 0.425 0.281-0.688-0.727-0.419h0.898l0.274-0.675zM15.203 9.356l0.273 0.681h0.898l-0.727 0.419 0.273 0.681-0.719-0.425-0.726 0.425 0.273-0.688-0.719-0.419h0.891l0.281-0.675zM20.266 9.356l0.281 0.681h0.891l-0.719 0.419 0.273 0.681-0.727-0.425-0.719 0.425 0.273-0.688-0.727-0.419h0.906l0.266-0.675zM25.336 9.356l0.273 0.681h0.898l-0.727 0.419 0.273 0.681-0.719-0.425-0.727 0.425 0.273-0.688-0.719-0.419h0.891l0.281-0.675zM2.531 11.075l0.281 0.688h0.891l-0.719 0.419 0.273 0.675-0.727-0.419-0.719 0.419 0.273-0.681-0.727-0.419h0.906l0.266-0.681zM7.602 11.075l0.273 0.688h0.898l-0.727 0.419 0.281 0.675-0.727-0.419-0.726 0.419 0.281-0.681-0.727-0.419h0.891l0.281-0.681zM12.664 11.075l0.281 0.688h0.883l-0.719 0.419 0.273 0.675-0.726-0.419-0.719 0.419 0.273-0.681-0.727-0.419h0.899l0.281-0.681zM17.734 11.075l0.273 0.688h0.898l-0.727 0.419 0.281 0.675-0.727-0.419-0.727 0.419 0.281-0.681-0.727-0.419h0.891l0.281-0.681zM22.797 11.075l0.281 0.688h0.891l-0.719 0.419 0.273 0.675-0.727-0.419-0.719 0.419 0.273-0.681-0.719-0.419h0.891l0.273-0.681zM27.867 11.075l0.273 0.688h0.899l-0.727 0.419 0.281 0.675-0.727-0.419-0.727 0.419 0.281-0.681-0.726-0.419h0.898l0.273-0.681zM5.070 12.8l0.273 0.681h0.898l-0.727 0.419 0.274 0.688-0.719-0.425-0.727 0.419 0.273-0.681-0.719-0.419h0.891l0.281-0.681zM10.133 12.8l0.281 0.681h0.891l-0.727 0.419 0.281 0.688-0.727-0.425-0.726 0.419 0.281-0.681-0.727-0.419h0.898l0.274-0.681zM15.203 12.8l0.273 0.681h0.898l-0.727 0.419 0.273 0.688-0.719-0.425-0.726 0.419 0.273-0.681-0.719-0.419h0.891l0.281-0.681zM20.266 12.8l0.281 0.681h0.891l-0.719 0.419 0.273 0.688-0.727-0.425-0.719 0.419 0.273-0.681-0.727-0.419h0.906l0.266-0.681zM25.336 12.8l0.273 0.681h0.898l-0.727 0.419 0.273 0.688-0.719-0.425-0.727 0.419 0.273-0.681-0.719-0.419h0.891l0.281-0.681zM2.531 14.525l0.281 0.681h0.891l-0.719 0.419 0.273 0.681-0.727-0.419-0.719 0.419 0.273-0.687-0.727-0.419h0.906l0.266-0.675zM7.602 14.525l0.273 0.681h0.898l-0.727 0.419 0.281 0.681-0.727-0.419-0.726 0.419 0.281-0.687-0.727-0.419h0.891l0.281-0.675zM12.664 14.525l0.281 0.681h0.883l-0.703 0.419 0.273 0.681-0.727-0.419-0.719 0.419 0.274-0.687-0.727-0.419h0.898l0.266-0.675zM17.734 14.525l0.273 0.681h0.898l-0.727 0.419 0.281 0.681-0.727-0.419-0.727 0.419 0.281-0.687-0.727-0.419h0.891l0.281-0.675zM22.797 14.525l0.281 0.681h0.891l-0.719 0.419 0.273 0.681-0.727-0.419-0.719 0.419 0.273-0.687-0.719-0.419h0.891l0.273-0.675zM27.867 14.525l0.273 0.681h0.899l-0.727 0.419 0.281 0.681-0.727-0.419-0.727 0.419 0.281-0.687-0.726-0.419h0.898l0.273-0.675z"></path>
        </symbol>
        <symbol id="instagram" viewBox="0 0 32 32">
            <path fill="#949bb7" style="fill: var(--color1, #949bb7)" d="M16 2.892c4.241 0 4.819 0 6.554 0 1.542 0 2.313 0.386 2.892 0.578 0.771 0.386 1.349 0.578 1.928 1.157s0.964 1.157 1.157 1.928c0.193 0.578 0.386 1.349 0.578 2.892 0 1.735 0 2.12 0 6.554s0 4.819 0 6.554c0 1.542-0.386 2.313-0.578 2.892-0.385 0.771-0.578 1.349-1.157 1.928s-1.157 0.964-1.928 1.157c-0.578 0.193-1.349 0.386-2.892 0.578-1.735 0-2.12 0-6.554 0s-4.819 0-6.554 0c-1.542 0-2.313-0.386-2.892-0.578-0.771-0.385-1.349-0.578-1.928-1.157s-0.964-1.157-1.157-1.928c-0.193-0.578-0.386-1.349-0.578-2.892 0-1.735 0-2.12 0-6.554s0-4.819 0-6.554c0-1.542 0.386-2.313 0.578-2.892 0.386-0.771 0.578-1.349 1.157-1.928s1.157-0.964 1.928-1.157c0.578-0.193 1.349-0.386 2.892-0.578 1.735 0 2.313 0 6.554 0zM16 0c-4.434 0-4.819 0-6.554 0s-2.892 0.386-3.855 0.771c-0.964 0.386-1.928 0.964-2.892 1.928s-1.349 1.735-1.928 2.892c-0.386 0.964-0.578 2.12-0.771 3.855 0 1.735 0 2.313 0 6.554 0 4.434 0 4.819 0 6.554s0.386 2.892 0.771 3.855c0.386 0.964 0.964 1.928 1.928 2.892s1.735 1.349 2.892 1.928c0.964 0.385 2.12 0.578 3.855 0.771 1.735 0 2.313 0 6.554 0s4.819 0 6.554 0c1.735 0 2.892-0.386 3.855-0.771s1.928-0.964 2.892-1.928c0.964-0.964 1.349-1.735 1.928-2.892 0.385-0.964 0.578-2.12 0.771-3.855 0-1.735 0-2.313 0-6.554s0-4.819 0-6.554c0-1.735-0.386-2.892-0.771-3.855s-0.964-1.928-1.928-2.892c-0.964-0.964-1.735-1.349-2.892-1.928-0.964-0.386-2.12-0.578-3.855-0.771-1.735 0-2.12 0-6.554 0z"></path>
            <path fill="#949bb7" style="fill: var(--color1, #949bb7)" d="M16 7.711c-4.627 0-8.289 3.663-8.289 8.289s3.663 8.289 8.289 8.289c4.627 0 8.289-3.663 8.289-8.289s-3.663-8.289-8.289-8.289zM16 21.398c-2.892 0-5.398-2.313-5.398-5.398 0-2.892 2.313-5.398 5.398-5.398 2.892 0 5.398 2.313 5.398 5.398 0 2.892-2.506 5.398-5.398 5.398z"></path>
            <path fill="#949bb7" style="fill: var(--color1, #949bb7)" d="M24.482 9.446c1.065 0 1.928-0.863 1.928-1.928s-0.863-1.928-1.928-1.928c-1.065 0-1.928 0.863-1.928 1.928s0.863 1.928 1.928 1.928z"></path>
        </symbol>
        <symbol id="telegram" viewBox="0 0 36 32">
            <path fill="#949bb7" style="fill: var(--color1, #949bb7)" d="M35.765 1.134l-5.657 29.534c0 0-0.792 2.048-2.966 1.066l-13.053-10.364-0.061-0.030c1.763-1.64 15.435-14.369 16.033-14.946 0.925-0.894 0.351-1.426-0.723-0.751l-20.195 13.281-7.791-2.715c0 0-1.226-0.452-1.344-1.434-0.119-0.984 1.384-1.516 1.384-1.516l31.763-12.903c0 0 2.611-1.188 2.611 0.778z"></path>
        </symbol>
        <symbol id="facebook" viewBox="0 0 17 32">
            <path fill="#949bb7" style="fill: var(--color1, #949bb7)" d="M10.653 17.203h5.179l0.813-5.293h-5.993v-2.893c0-2.199 0.714-4.148 2.758-4.148h3.285v-4.619c-0.577-0.078-1.798-0.25-4.104-0.25-4.816 0-7.64 2.559-7.64 8.389v3.521h-4.951v5.293h4.951v14.548c0.981 0.148 1.974 0.249 2.993 0.249 0.922 0 1.821-0.085 2.709-0.206v-14.591z"></path>
        </symbol>
        <symbol id="icon-Search-icon" viewBox="">
            <path fill="" style="" d="M20.666 18.666h-1.053l-0.373-0.36c1.6-1.867 2.427-4.413 1.973-7.12-0.627-3.707-3.72-6.667-7.453-7.12-5.64-0.693-10.387 4.053-9.693 9.693 0.453 3.733 3.413 6.827 7.12 7.453 2.707 0.453 5.253-0.373 7.12-1.973l0.36 0.373v1.053l5.667 5.667c0.547 0.547 1.44 0.547 1.987 0s0.547-1.44 0-1.987l-5.653-5.68zM12.666 18.666c-3.32 0-6-2.68-6-6s2.68-6 6-6c3.32 0 6 2.68 6 6s-2.68 6-6 6z"></path>
        </symbol>
        <symbol id="icon-Notification-icon" viewBox="0 0 32 32">
            <path fill="#949bb7" style="fill: var(--color1, #949bb7)" d="M25.72 23.053l-1.72-1.72v-6.667c0-4.093-2.187-7.52-6-8.427v-0.907c0-1.107-0.893-2-2-2s-2 0.893-2 2v0.907c-3.827 0.907-6 4.32-6 8.427v6.667l-1.72 1.72c-0.84 0.84-0.253 2.28 0.933 2.28h17.56c1.2 0 1.787-1.44 0.947-2.28zM21.333 22.667h-10.667v-8c0-3.307 2.013-6 5.333-6s5.333 2.693 5.333 6v8zM16 29.333c1.467 0 2.667-1.2 2.667-2.667h-5.333c0 1.467 1.187 2.667 2.667 2.667z"></path>
            <path fill="#111217" style="fill: var(--color2, #111217)" d="M28 11c0 3.314-2.686 6-6 6s-6-2.686-6-6c0-3.314 2.686-6 6-6s6 2.686 6 6z"></path>
            <path fill="#fff500" style="fill: var(--color3, #fff500)" d="M27 10.5c0 2.485-2.015 4.5-4.5 4.5s-4.5-2.015-4.5-4.5c0-2.485 2.015-4.5 4.5-4.5s4.5 2.015 4.5 4.5z"></path>
        </symbol>
    </defs>
</svg>