<svg aria-hidden="true" style="position: absolute; width: 0; height: 0; overflow: hidden;" version="1.1" xmlns="http://www.w3.org/2000/svg" xmlns:xlink="http://www.w3.org/1999/xlink">
    <defs>
        <symbol id="icon-Search-icon" viewBox="">
            <path fill="" style="" d="M20.666 18.666h-1.053l-0.373-0.36c1.6-1.867 2.427-4.413 1.973-7.12-0.627-3.707-3.72-6.667-7.453-7.12-5.64-0.693-10.387 4.053-9.693 9.693 0.453 3.733 3.413 6.827 7.12 7.453 2.707 0.453 5.253-0.373 7.12-1.973l0.36 0.373v1.053l5.667 5.667c0.547 0.547 1.44 0.547 1.987 0s0.547-1.44 0-1.987l-5.653-5.68zM12.666 18.666c-3.32 0-6-2.68-6-6s2.68-6 6-6c3.32 0 6 2.68 6 6s-2.68 6-6 6z"></path>
        </symbol>
        <symbol id="icon-Notification-icon" viewBox="0 0 32 32">
            <path fill="#949bb7" style="fill: var(--color1, #949bb7)" d="M25.72 23.053l-1.72-1.72v-6.667c0-4.093-2.187-7.52-6-8.427v-0.907c0-1.107-0.893-2-2-2s-2 0.893-2 2v0.907c-3.827 0.907-6 4.32-6 8.427v6.667l-1.72 1.72c-0.84 0.84-0.253 2.28 0.933 2.28h17.56c1.2 0 1.787-1.44 0.947-2.28zM21.333 22.667h-10.667v-8c0-3.307 2.013-6 5.333-6s5.333 2.693 5.333 6v8zM16 29.333c1.467 0 2.667-1.2 2.667-2.667h-5.333c0 1.467 1.187 2.667 2.667 2.667z"></path>
            <path fill="#111217" style="fill: var(--color2, #111217)" d="M28 11c0 3.314-2.686 6-6 6s-6-2.686-6-6c0-3.314 2.686-6 6-6s6 2.686 6 6z"></path>
            <path fill="#fff500" style="fill: var(--color3, #fff500)" d="M27 10.5c0 2.485-2.015 4.5-4.5 4.5s-4.5-2.015-4.5-4.5c0-2.485 2.015-4.5 4.5-4.5s4.5 2.015 4.5 4.5z"></path>
        </symbol>
    </defs>
</svg>